<svg xmlns="http://www.w3.org/2000/svg" xmlns:xlink="http://www.w3.org/1999/xlink" viewBox="0,0,256,256" width="64px" height="64px" fill-rule="nonzero"><defs><radialGradient cx="32" cy="32" r="32" gradientUnits="userSpaceOnUse" id="color-1"><stop offset="0" stop-color="#f4e9c3" stop-opacity="0.54118"></stop><stop offset="0.219" stop-color="#f8eecd" stop-opacity="0.54118"></stop><stop offset="0.644" stop-color="#fdf4dc" stop-opacity="0.52157"></stop><stop offset="1" stop-color="#fff6e1" stop-opacity="0.52941"></stop></radialGradient><linearGradient x1="32" y1="58.447" x2="32" y2="7.25" gradientUnits="userSpaceOnUse" id="color-2"><stop offset="0" stop-color="#155cde"></stop><stop offset="0.278" stop-color="#1f7fe5"></stop><stop offset="0.569" stop-color="#279ceb"></stop><stop offset="0.82" stop-color="#2cafef"></stop><stop offset="1" stop-color="#2eb5f0"></stop></linearGradient><linearGradient x1="31.999" y1="58.191" x2="31.999" y2="5.21" gradientUnits="userSpaceOnUse" id="color-3"><stop offset="0" stop-color="#155cde"></stop><stop offset="0.278" stop-color="#1f7fe5"></stop><stop offset="0.569" stop-color="#279ceb"></stop><stop offset="0.82" stop-color="#2cafef"></stop><stop offset="1" stop-color="#2eb5f0"></stop></linearGradient><linearGradient x1="32" y1="57.809" x2="32" y2="5.933" gradientUnits="userSpaceOnUse" id="color-4"><stop offset="0" stop-color="#155cde"></stop><stop offset="0.278" stop-color="#1f7fe5"></stop><stop offset="0.569" stop-color="#279ceb"></stop><stop offset="0.82" stop-color="#2cafef"></stop><stop offset="1" stop-color="#2eb5f0"></stop></linearGradient><linearGradient x1="32" y1="37" x2="32" y2="27" gradientUnits="userSpaceOnUse" id="color-5"><stop offset="0" stop-color="#155cde"></stop><stop offset="0.278" stop-color="#1f7fe5"></stop><stop offset="0.569" stop-color="#279ceb"></stop><stop offset="0.82" stop-color="#2cafef"></stop><stop offset="1" stop-color="#2eb5f0"></stop></linearGradient></defs><g fill="none" fill-rule="nonzero" stroke="none" stroke-width="1" stroke-linecap="butt" stroke-linejoin="miter" stroke-miterlimit="10" stroke-dasharray="" stroke-dashoffset="0" font-family="none" font-weight="none" font-size="none" text-anchor="none" style="mix-blend-mode: normal"><g transform="scale(4,4)"><path d="M61.97,58.03c-0.63,-0.64 -1.51,-1.03 -2.47,-1.03c-0.96,0 -1.84,0.39 -2.47,1.03c-0.64,0.63 -1.03,1.51 -1.03,2.47c0,0.96 0.39,1.84 1.03,2.47c0.63,0.64 1.51,1.03 2.47,1.03c1.93,0 3.5,-1.57 3.5,-3.5c0,-0.96 -0.39,-1.84 -1.03,-2.47zM56.5,25h3c1.24,0 2.37,-0.5 3.18,-1.32c0.82,-0.81 1.32,-1.94 1.32,-3.18c0,-2.49 -2.01,-4.5 -4.5,-4.5h-8.5c-1.1,0 -2.1,-0.45 -2.83,-1.17c-0.72,-0.73 -1.17,-1.73 -1.17,-2.83c0,-2.21 1.79,-4 4,-4h5c1.1,0 2.1,-0.45 2.83,-1.17c0.72,-0.73 1.17,-1.73 1.17,-2.83c0,-2.21 -1.79,-4 -4,-4h-42c-1.1,0 -2.1,0.45 -2.83,1.17c-0.72,0.73 -1.17,1.73 -1.17,2.83c0,1.1 0.45,2.1 1.17,2.83c0.73,0.72 1.73,1.17 2.83,1.17c0.83,0 2.33,0.34 2.62,0.88c0.3,0.54 0.38,1.29 0.38,2.12c0,1.66 -1.34,3 -3,3h-8.5c-0.96,0 -1.84,0.39 -2.47,1.03c-0.64,0.63 -1.03,1.51 -1.03,2.47c0,1.93 1.57,3.5 3.5,3.5h1.5c0.83,0 1.58,0.34 2.12,0.88c0.54,0.54 0.88,1.29 0.88,2.12c0,1.66 -2.34,3 -4,3v10l9,3c0.96,0 2.34,-2.61 2.97,-1.97c0.64,0.63 1.03,1.51 1.03,2.47c0,1.93 -1.57,3.5 -3.5,3.5h-7.5c-1.1,0 -2.1,0.45 -2.83,1.17c-0.72,0.73 -1.17,1.73 -1.17,2.83c0,2.21 1.79,4 4,4v0c0.08,0 0.42,0 0.5,0c1.38,0 2.5,1.12 2.5,2.5c0,1.38 -1.12,2.5 -2.5,2.5c-0.08,0 -2.5,0 -2.5,0c-0.96,0 -1.96,0.39 -2.72,1.03c-0.76,0.63 -1.28,1.51 -1.28,2.47c0,1.93 1.57,3.5 3.5,3.5h44c0.96,0 1.84,-0.39 2.47,-1.03c0.64,-0.63 1.03,-1.51 1.03,-2.47c0,-1.93 -1.57,-3.5 -3.5,-3.5h-3.5c-0.55,0 -1.05,-0.22 -1.41,-0.59c-0.37,-0.36 -0.59,-0.86 -0.59,-1.41c0,-1.1 1.9,-2 3,-2h10c1.1,0 2.1,-0.45 2.83,-1.17c0.72,-0.73 1.17,-1.73 1.17,-2.83c0,-2.21 -1.79,-4 -4,-4h-7.5c-0.69,0 -1.32,-0.28 -1.77,-0.73c-0.45,-0.45 -0.73,-1.08 -0.73,-1.77c0,-1.38 1.12,-2.5 2.5,-2.5h3.5c1.1,0 2.1,-0.45 2.83,-1.17c0.72,-0.73 1.17,-1.73 1.17,-2.83c0,-2.21 3.21,-4 1,-4h1.5c-0.96,0 -1.84,-0.39 -2.47,-1.03c-0.64,-0.63 -1.03,-1.51 -1.03,-2.47c0,-1.93 -1.43,-3.5 0.5,-3.5zM6.83,1.17c-0.73,-0.72 -1.73,-1.17 -2.83,-1.17c-2.21,0 -4,1.79 -4,4c0,1.1 0.45,2.1 1.17,2.83c0.73,0.72 1.73,1.17 2.83,1.17c1.1,0 2.1,-0.45 2.83,-1.17c0.72,-0.73 1.17,-1.73 1.17,-2.83c0,-1.1 -0.45,-2.1 -1.17,-2.83z" fill="url(#color-1)"></path><path d="M32,45c-16.533,0 -29,-5.589 -29,-13c0,-7.411 12.467,-13 29,-13c16.532,0 29,5.589 29,13c0,7.411 -12.468,13 -29,13zM32,23c-14.309,0 -25,4.751 -25,9c0,4.248 10.691,9 25,9c14.309,0 25,-4.752 25,-9c0,-4.249 -10.691,-9 -25,-9z" fill="url(#color-2)"></path><path d="M42.969,58.022c-2.744,0 -5.962,-1.361 -9.386,-4.021c-4.549,-3.533 -9.109,-9.038 -12.842,-15.503c-8.266,-14.317 -9.66,-27.908 -3.242,-31.614v0c6.417,-3.706 17.492,4.297 25.759,18.614c3.732,6.465 6.22,13.167 7.005,18.872c0.869,6.314 -0.468,10.84 -3.764,12.742c-1.054,0.61 -2.24,0.91 -3.53,0.91zM19.499,10.349c-3.679,2.124 -2.448,13.759 4.706,26.15c3.48,6.027 7.682,11.121 11.831,14.344c3.559,2.763 6.721,3.815 8.463,2.806c1.742,-1.005 2.415,-4.27 1.801,-8.732c-0.716,-5.204 -3.026,-11.39 -6.507,-17.417c-7.153,-12.391 -16.61,-19.272 -20.294,-17.151z" fill="url(#color-3)"></path><path d="M21.01,58.017c-1.274,0 -2.456,-0.292 -3.511,-0.901c-3.295,-1.903 -4.632,-6.428 -3.763,-12.742c0.785,-5.706 3.272,-12.408 7.005,-18.872v0c3.732,-6.464 8.293,-11.97 12.842,-15.502c5.032,-3.91 9.619,-5.016 12.916,-3.112c3.296,1.902 4.633,6.428 3.764,12.742c-0.785,5.706 -3.272,12.408 -7.005,18.872c-6.907,11.961 -15.774,19.515 -22.248,19.515zM24.205,27.501c-3.479,6.026 -5.79,12.212 -6.506,17.417c-0.614,4.463 0.059,7.728 1.8,8.732c3.681,2.129 13.141,-4.758 20.294,-17.149c3.48,-6.027 5.791,-12.212 6.507,-17.417c0.614,-4.462 -0.059,-7.727 -1.801,-8.733c-1.738,-1.004 -4.904,0.044 -8.463,2.807c-4.149,3.222 -8.351,8.316 -11.831,14.343z" fill="url(#color-4)"></path><circle cx="32" cy="32" r="5" fill="url(#color-5)"></circle></g></g></svg>