<svg xmlns="http://www.w3.org/2000/svg"  viewBox="0 0 64 64" width="64px" height="64px" baseProfile="basic"><circle cx="32" cy="32" r="23" fill="#9c34c2"/><path fill="#a0effe" d="M14.001,32c0,7.128,4.14,13.282,10.145,16.2l-8.588-23.526C14.56,26.914,14.001,29.385,14.001,32z M44.154,31.093c0-2.224-1.196-3.769-1.879-4.964c-0.915-1.495-1.773-2.742-1.773-4.221c0-1.648,1.655-3.195,3.421-3.195	c0.08,0,0.152,0.007,0.232,0.009C40.956,15.782,36.688,14,32.001,14c-6.063,0-11.422,2.999-14.683,7.593	c0.256,0.083,0.345,0.044,0.687,0.044c1.878,0,4.797-0.225,4.797-0.225c0.968-0.064,1.086,1.363,0.111,1.48	c0,0-0.972,0.118-2.056,0.171l6.672,20l3.938-11.814l-2.928-8.154c-0.969-0.052-1.889-0.171-1.889-0.171	c-0.97-0.063-0.857-1.547,0.11-1.48c0,0,2.979,0.225,4.744,0.225c1.884,0,4.797-0.225,4.797-0.225	c0.969-0.064,1.086,1.363,0.117,1.48c0,0-0.979,0.118-2.061,0.171l6.627,19.811l1.799-5.992	C43.698,34.575,44.154,32.64,44.154,31.093z M32.316,33.57l-5.4,15.696C28.531,49.746,30.234,50,32.001,50	c2.094,0,4.105-0.365,5.98-1.02c-0.045-0.08-0.096-0.161-0.133-0.248L32.316,33.57z M47.798,23.358	c0.08,0.574,0.122,1.191,0.122,1.851c0,1.832-0.344,3.882-1.371,6.454l-5.496,15.902c5.353-3.118,8.947-8.925,8.947-15.564	C49.999,28.871,49.2,25.93,47.798,23.358z"/><ellipse cx="32" cy="61" opacity=".3" rx="19" ry="3"/><path fill="#fff" d="M32,14c2.577,0,4.674-1.957,4.946-4.461C35.352,9.19,33.699,9,32,9	C19.297,9,9,19.297,9,32c0,1.699,0.19,3.352,0.539,4.946C12.044,36.674,14,34.577,14,32C14,22.075,22.075,14,32,14z" opacity=".3"/><path fill="none" stroke="#fff" stroke-linecap="round" stroke-linejoin="round" stroke-miterlimit="10" stroke-width="3" d="M15.047,23.427c1.878-3.699,4.932-6.705,8.666-8.522"/><path d="M54.461,27.054C51.956,27.326,50,29.423,50,32c0,9.925-8.075,18-18,18	c-2.577,0-4.674,1.957-4.946,4.461C28.648,54.81,30.301,55,32,55c12.703,0,23-10.297,23-23C55,30.301,54.81,28.648,54.461,27.054z" opacity=".15"/></svg>